# xmcd
#
# Track frame offsets:
#	150
#	15409
#	33248
#	54400
#	71605
#	94796
#	117405
#	134520
#	150207
#	166591
#
# Disc length: 2449 seconds
# Revision: 0
# Processed by: cddbd v1.5.2PL0 Copyright (c) Steve Scherf et al.
# Submitted via: dBpowerAMP V12.0
#
DISCID=70098f0a
DTITLE=Clay Coffey - Coffey Around The Campfire
DYEAR=2000
DGENRE=Country
TTITLE0=That's Why I'll Never Want To Be Anything But A Cowboy
TTITLE1=The One I Never Could Ride
TTITLE2=Caballo Diablo
TTITLE3=Night Rider's Lament
TTITLE4=Seventeen
TTITLE5=Big Iron
TTITLE6=The Cowboys Song
TTITLE7=Sancho
TTITLE8=Darlin'
TTITLE9=The Master's Call
EXTD=
EXTT0=
EXTT1=
EXTT2=
EXTT3=
EXTT4=
EXTT5=
EXTT6=
EXTT7=
EXTT8=
EXTT9=
PLAYORDER=
